<?xml version="1.0" encoding="utf-8"?>
<!-- Generator: Adobe Illustrator 21.1.0, SVG Export Plug-In . SVG Version: 6.00 Build 0)  -->
<svg version="1.1" id="Layer_1" xmlns="http://www.w3.org/2000/svg" xmlns:xlink="http://www.w3.org/1999/xlink" x="0px" y="0px"
	 viewBox="0 0 612 145.5" style="enable-background:new 0 0 612 145.5;" xml:space="preserve">
<style type="text/css">
	.st0{fill:#FFFFFF;}
</style>
<g>
	<path class="st0" d="M55.6,42.1h15.5l25.7,68.6H81.1l-5.2-15.3H50.2l-5.4,15.3H29.6L55.6,42.1z M54.2,84.2H72l-8.7-25.2h-0.2
		L54.2,84.2z"/>
	<path class="st0" d="M113,88c0,9.1,7.1,12.7,15.2,12.7c5.3,0,13.4-1.5,13.4-8.6c0-7.4-10.3-8.7-20.4-11.3
		c-10.2-2.7-20.5-6.6-20.5-19.5c0-14,13.3-20.8,25.7-20.8c14.3,0,27.5,6.2,27.5,22.1h-14.6c-0.5-8.3-6.3-10.4-13.6-10.4
		c-4.8,0-10.4,2-10.4,7.8c0,5.3,3.3,6,20.5,10.4c5,1.3,20.4,4.4,20.4,20c0,12.6-9.9,22-28.5,22c-15.2,0-29.4-7.5-29.2-24.4H113z"/>
	<path class="st0" d="M176.8,88c0,9.1,7.1,12.7,15.2,12.7c5.3,0,13.4-1.5,13.4-8.6c0-7.4-10.3-8.7-20.4-11.3
		c-10.2-2.7-20.5-6.6-20.5-19.5c0-14,13.3-20.8,25.7-20.8c14.3,0,27.5,6.2,27.5,22.1h-14.6c-0.5-8.3-6.3-10.4-13.6-10.4
		c-4.8,0-10.4,2-10.4,7.8c0,5.3,3.3,6,20.5,10.4c5,1.3,20.4,4.4,20.4,20c0,12.6-9.9,22-28.5,22c-15.2,0-29.4-7.5-29.2-24.4H176.8z"
		/>
	<path class="st0" d="M260.6,40.5c21.2,0,33.7,15.9,33.7,36.2c0,19.8-12.5,35.7-33.7,35.7c-21.2,0-33.7-15.9-33.7-35.7
		C226.9,56.4,239.4,40.5,260.6,40.5z M260.6,99.7c13.6,0,18.6-11.5,18.6-23c0-12-5.1-23.5-18.6-23.5c-13.6,0-18.6,11.5-18.6,23.5
		C241.9,88.2,247,99.7,260.6,99.7z"/>
	<path class="st0" d="M362.4,84.8c0,18.6-11,27.6-29.3,27.6c-18.5,0-29.2-8.9-29.2-27.6V42.1H319v42.7c0,7.5,1.9,14.9,14.1,14.9
		c10.8,0,14.2-4.7,14.2-14.9V42.1h15.1V84.8z"/>
	<path class="st0" d="M374.6,42.1h15.1v55.9h33.4v12.7h-48.5V42.1z"/>
	<path class="st0" d="M431.3,42.1h15.1v68.6h-15.1V42.1z"/>
	<path class="st0" d="M461.2,42.1h15l28.6,46h0.2v-46h14.1v68.6h-15.1l-28.5-45.9h-0.2v45.9h-14.1V42.1z"/>
	<path class="st0" d="M532.2,42.1h52.1v12.7h-37v14.7h33.3v11.7h-33.3v16.8h37v12.7h-52.1V42.1z"/>
</g>
</svg>
