<?xml version="1.0" encoding="UTF-8" standalone="no"?>
<svg
   xmlns:dc="http://purl.org/dc/elements/1.1/"
   xmlns:cc="http://creativecommons.org/ns#"
   xmlns:rdf="http://www.w3.org/1999/02/22-rdf-syntax-ns#"
   xmlns:svg="http://www.w3.org/2000/svg"
   xmlns="http://www.w3.org/2000/svg"
   version="1.1"
   viewBox="0 0 30.9 64.65"
   data-name="Layer 1"
   id="Layer_1">
  <metadata
     id="metadata77">
    <rdf:RDF>
      <cc:Work
         rdf:about="">
        <dc:format>image/svg+xml</dc:format>
        <dc:type
           rdf:resource="http://purl.org/dc/dcmitype/StillImage" />
      </cc:Work>
    </rdf:RDF>
  </metadata>
  <defs
     id="defs4">
    <style
       id="style2">.cls-1{fill:#fff;stroke:#58585a;stroke-linecap:round;stroke-linejoin:round;stroke-width:0.81px;}.cls-2{fill:none;}.cls-3{fill:#59595b;}</style>
  </defs>
  <title
     id="title6">CERTIFICATE_58585a</title>
  <polygon
     id="polygon8"
     points="30.5 60.58 1.22 63.84 0.41 2.03 30.5 0.41 30.5 60.58"
     class="cls-1" />
  <rect
     id="rect10"
     height="61.8"
     width="27.65"
     y="2.44"
     x="0.41"
     class="cls-1" />
  <rect
     id="rect12"
     height="9.72"
     width="12.3"
     y="23.04"
     x="8.05"
     class="cls-2" />
  <polygon
     id="polygon14"
     points="8.63 32.41 8.28 31.92 8.28 31.95 8.17 31.95 8.17 32.52 8.28 32.52 8.28 32.02 8.6 32.51 8.6 32.52 8.74 32.52 8.74 31.95 8.63 31.95 8.63 32.41"
     class="cls-3" />
  <polygon
     id="polygon16"
     points="9.26 32.24 9.54 32.24 9.54 32.18 9.2 32.18 9.2 32.01 9.6 32.01 9.6 31.95 9.14 31.95 9.14 32.52 9.6 32.52 9.6 32.41 9.26 32.41 9.26 32.24"
     class="cls-3" />
  <polygon
     id="polygon18"
     points="10.66 32.44 10.48 31.95 10.48 31.95 10.37 31.95 10.2 32.44 10.03 31.95 10.03 31.95 9.94 31.95 10.13 32.52 10.14 32.52 10.25 32.52 10.43 32.03 10.6 32.52 10.6 32.52 10.72 32.52 10.91 31.95 10.92 31.95 10.82 31.95 10.66 32.44"
     class="cls-3" />
  <polygon
     id="polygon20"
     points="12.08 32.19 11.88 31.92 11.87 31.95 11.76 31.95 12.02 32.27 12.02 32.52 12.13 32.52 12.13 32.27 12.4 31.93 12.41 31.95 12.29 31.95 12.08 32.19"
     class="cls-3" />
  <path
     id="path22"
     transform="translate(-34.55 -17.68)"
     d="M47.56,49.58a.3.3,0,0,0-.33.31.3.3,0,0,0,.33.31.3.3,0,0,0,.34-.31A.31.31,0,0,0,47.56,49.58Zm0,.55a.23.23,0,0,1-.23-.29.23.23,0,0,1,.46,0h0a.22.22,0,0,1-.05.16A.23.23,0,0,1,47.54,50.13Z"
     class="cls-3" />
  <path
     id="path24"
     transform="translate(-34.55 -17.68)"
     d="M48.81,50v0c0-.09,0-.13-.11-.14a.14.14,0,0,0,.13-.14c0-.08,0-.16-.24-.16h-.3v.58h.12V50h.13s.14,0,.15,0,0,0,0,.08,0,.07,0,.12h0v0A.24.24,0,0,0,48.81,50Zm-.23-.19h-.17v-.17h.17c.09,0,.13,0,.13.09s0,.08-.13.08Z"
     class="cls-3" />
  <polygon
     id="polygon26"
     points="15.21 31.95 15.07 31.95 14.78 32.18 14.78 31.95 14.66 31.95 14.66 32.52 14.78 32.52 14.78 32.2 15.1 32.51 15.1 32.52 15.24 32.52 14.87 32.19 15.21 31.95"
     class="cls-3" />
  <path
     id="path28"
     transform="translate(-34.55 -17.68)"
     d="M52,49.62a.91.91,0,0,1-.16.11v.07h0a.42.42,0,0,0,.17-.1v.5h.06v-.58H52Z"
     class="cls-3" />
  <path
     id="path30"
     transform="translate(-34.55 -17.68)"
     d="M52.87,49.61c-.14,0-.24.07-.24.19a.21.21,0,0,0,.22.19.22.22,0,0,0,.2-.08c0,.15-.07.22-.17.22a.15.15,0,0,1-.16-.1H52.6a.27.27,0,0,0,.27.17c.19,0,.27-.1.27-.32A.23.23,0,0,0,52.87,49.61Zm0,.31c-.11,0-.15-.07-.15-.12s0-.12.15-.12.15.07.15.12-.05.12-.15.12Z"
     class="cls-3" />
  <path
     id="path32"
     transform="translate(-34.55 -17.68)"
     d="M53.74,49.61c-.17,0-.26.1-.26.29s.09.3.26.3.26-.1.26-.3S53.91,49.61,53.74,49.61Zm0,.52c-.14,0-.17-.12-.17-.23s0-.22.17-.22.17.12.17.22S53.88,50.13,53.74,50.13Z"
     class="cls-3" />
  <polygon
     id="polygon34"
     points="19.84 32.06 20.2 32.06 19.95 32.52 19.95 32.52 20.05 32.52 20.3 32.06 20.3 31.95 19.84 31.95 19.84 32.06"
     class="cls-3" />
  <path
     id="path36"
     transform="translate(-34.55 -17.68)"
     d="M50.74,49.84a.08.08,0,0,0-.08.08.08.08,0,1,0,.16,0h0A.08.08,0,0,0,50.74,49.84Z"
     class="cls-3" />
  <path
     id="path38"
     transform="translate(-34.55 -17.68)"
     d="M47.37,44.36a.26.26,0,0,1,.15.21.24.24,0,0,1,0,.08l-1.07,2.79h0l-.56-1.5.49-1.3c.1-.2.19-.26.28-.28v-.08h-.69v.08a.24.24,0,0,1,.15.21.19.19,0,0,1,0,.08l-.39,1-.39-1a.24.24,0,0,1,0-.08.23.23,0,0,1,.15-.21v-.08h-.75v.08c.09,0,.19.08.28.28l.57,1.45L45,47.44h0l-1-2.79a.13.13,0,0,1,0-.08.21.21,0,0,1,.14-.21v-.08h-.81v.08c.1,0,.19.08.29.29L44.85,48H45l.63-1.59L46.29,48h.18l1.3-3.36c.1-.21.2-.27.29-.29v-.08h-.69Z"
     class="cls-3" />
  <path
     id="path40"
     transform="translate(-34.55 -17.68)"
     d="M54.79,44.28v.51h.06s.16-.28.32-.28h.94v3.08a.28.28,0,0,1-.09.23.59.59,0,0,1-.14.07V48h.81v-.07a.57.57,0,0,1-.12-.07.34.34,0,0,1-.11-.23V44.51h1c.16,0,.32.28.32.28h.1v-.51Z"
     class="cls-3" />
  <path
     id="path42"
     transform="translate(-34.55 -17.68)"
     d="M51.48,47.67a.31.31,0,0,1,0-.08l.39-1h1.39l.37,1a.31.31,0,0,1,0,.08.25.25,0,0,1-.15.21V48h.81v-.08a.46.46,0,0,1-.3-.29l-1.3-3.37h-.21l-1.34,3.36c-.1.21-.21.27-.3.29V48h.75v-.08A.25.25,0,0,1,51.48,47.67Zm1.1-2.84.6,1.57H52Z"
     class="cls-3" />
  <path
     id="path44"
     transform="translate(-34.55 -17.68)"
     d="M49.1,44.36a.23.23,0,0,1,.1.07.45.45,0,0,1,.13.22v2.94a.48.48,0,0,1-.13.23l-.1.07V48h.74v-.07a.28.28,0,0,1-.09-.07.74.74,0,0,1-.14-.23V44.65a.69.69,0,0,1,.14-.22.28.28,0,0,1,.09-.07v-.08H49.1Z"
     class="cls-3" />
  <path
     id="path46"
     transform="translate(-34.55 -17.68)"
     d="M41.92,47.32,40.67,46l0-.05,1.22-1.42a.63.63,0,0,1,.38-.21v-.07h-.75v.08a.11.11,0,0,1,.11.12.19.19,0,0,1,0,.12l-1.25,1.53,1.33,1.53a.88.88,0,0,0,.81.3h.14v-.08a.73.73,0,0,1-.37-.19Z"
     class="cls-3" />
  <path
     id="path48"
     transform="translate(-34.55 -17.68)"
     d="M40.24,47.59V44.65a.54.54,0,0,1,.13-.22.3.3,0,0,1,.1-.07v-.08h-.74v.08a.28.28,0,0,1,.09.07.55.55,0,0,1,.14.22v2.94a.59.59,0,0,1-.14.23l-.09.07V48h.74v-.07a.3.3,0,0,1-.1-.07A.58.58,0,0,1,40.24,47.59Z"
     class="cls-3" />
  <path
     id="path50"
     transform="translate(-34.55 -17.68)"
     d="M51.39,40.8h0l0,0Z"
     class="cls-3" />
  <path
     id="path52"
     transform="translate(-34.55 -17.68)"
     d="M51.58,41a.62.62,0,0,1,.16.41.71.71,0,0,1-.34.58v.12a.7.7,0,0,0,.05-1.23A.49.49,0,0,1,51.58,41Z"
     class="cls-3" />
  <path
     id="path54"
     transform="translate(-34.55 -17.68)"
     d="M48.24,41a1.56,1.56,0,0,1-.47.45v.24a1.61,1.61,0,0,0,.59-.54,2.55,2.55,0,0,0,.56.48h0a1.76,1.76,0,0,1-.45-.41l-.09-.1a1.35,1.35,0,0,0-.18-1.63,2,2,0,0,1,.72-.8v-.31a2,2,0,0,0-.89.94,1.44,1.44,0,0,0-.25-.18h0a1.5,1.5,0,0,1,.25.19A1.71,1.71,0,0,0,48.24,41Zm-.08-1.48A1.21,1.21,0,0,1,48.24,41a1.63,1.63,0,0,1-.22-.8A1.57,1.57,0,0,1,48.16,39.52Z"
     class="cls-3" />
  <path
     id="path56"
     transform="translate(-34.55 -17.68)"
     d="M49.34,38.75a1.66,1.66,0,0,1,.33.56,1.36,1.36,0,0,0-.4,1.7,2.18,2.18,0,0,1-.4.34v.32a2.27,2.27,0,0,0,.55-.43,1.84,1.84,0,0,0,.54.5h0a1.84,1.84,0,0,1-.52-.52,1.67,1.67,0,0,0,.38-1.75.71.71,0,0,1,.14-.1v-.26l-.23.15a2.24,2.24,0,0,0-.86-.92h0A1.85,1.85,0,0,1,49.34,38.75Zm.39.8a1.53,1.53,0,0,1,0,.3,1.65,1.65,0,0,1-.44,1.09,1.14,1.14,0,0,1-.07-.41,1.31,1.31,0,0,1,.48-1Z"
     class="cls-3" />
  <path
     id="path58"
     transform="translate(-34.55 -17.68)"
     d="M46.47,41.59a.73.73,0,0,1-.31.36V42a.67.67,0,0,0,.35-.39,1.28,1.28,0,0,0,.29.23h0a1,1,0,0,1-.25-.21l0,0a.68.68,0,0,0-.18-.67,1,1,0,0,1,.46-.66v-.2l.16.11a1.42,1.42,0,0,0,.27,1,2.5,2.5,0,0,1-.38.5v.14a1.05,1.05,0,0,0,.5-.56,2.36,2.36,0,0,0,.42.36h0a1.47,1.47,0,0,1-.35-.31l-.06-.07a.92.92,0,0,0-.24-1,1.47,1.47,0,0,1,.65-.91v-.29A1.5,1.5,0,0,0,47,40.19a.91.91,0,0,0-.16-.11h0a1,1,0,0,0-.56.78l0,0,0,0A1,1,0,0,0,46.47,41.59Zm.61-1.26a.92.92,0,0,1,.22.57.87.87,0,0,1,0,.28,1.23,1.23,0,0,1-.19-.65A1.5,1.5,0,0,1,47.08,40.33Zm-.75.61h0a.68.68,0,0,1,.17.42.57.57,0,0,1,0,.18.8.8,0,0,1-.15-.47.57.57,0,0,1,0-.13Z"
     class="cls-3" />
  <path
     id="path60"
     transform="translate(-34.55 -17.68)"
     d="M50.33,39.43a1.26,1.26,0,0,1,.33.74,1,1,0,0,0-.4,1.06,1.76,1.76,0,0,1-.3.24v.25a1.78,1.78,0,0,0,.38-.28,1.38,1.38,0,0,0,.47.49h0a1.09,1.09,0,0,1-.25-.23.79.79,0,0,1-.18-.29,1.35,1.35,0,0,0,.4-1.13l0,0v-.18l-.07,0a1.7,1.7,0,0,0-.78-1h0A1.61,1.61,0,0,1,50.33,39.43Zm0,1.72v-.07a1,1,0,0,1,.34-.71A1.26,1.26,0,0,1,50.31,41.15Z"
     class="cls-3" />
  <path
     id="path62"
     transform="translate(-34.55 -17.68)"
     d="M51.07,40.32a.85.85,0,0,1,.23.55.66.66,0,0,0-.28.67,1.06,1.06,0,0,1-.2.17v.17a1.18,1.18,0,0,0,.25-.19.84.84,0,0,0,.28.31.69.69,0,0,1-.13-.11.68.68,0,0,1-.12-.22.92.92,0,0,0,.28-.74h0V40.8l0,0a1.12,1.12,0,0,0-.54-.72h0A.85.85,0,0,1,51.07,40.32Zm0,1.19v0a.66.66,0,0,1,.24-.49.9.9,0,0,1-.24.51Z"
     class="cls-3" />
  <path
     id="path64"
     transform="translate(-34.55 -17.68)"
     d="M51.39,42.06h0a.05.05,0,0,1,0,0A.05.05,0,0,0,51.39,42.06Z"
     class="cls-3" />
  <path
     id="path66"
     transform="translate(-34.55 -17.68)"
     d="M46.11,42a.68.68,0,0,1-.12-.12.63.63,0,0,1-.17-.42.72.72,0,0,1,.34-.58v-.12A.71.71,0,0,0,46.11,42Z"
     class="cls-3" />
  <path
     id="path68"
     transform="translate(-34.55 -17.68)"
     d="M46.16,42.06l0,0,0,0Z"
     class="cls-3" />
  <path
     id="path70"
     transform="translate(-34.55 -17.68)"
     d="M46.15,40.79h0l0,0Z"
     class="cls-3" />
  <path
     id="path72"
     transform="translate(-34.55 -17.68)"
     d="M48.89,41.86h-.14a5.58,5.58,0,0,0-2.83.77A7.38,7.38,0,0,1,48.74,42h.16a6.58,6.58,0,0,1,2.79.56A5.1,5.1,0,0,0,48.89,41.86Z"
     class="cls-3" />
</svg>
