<?xml version="1.0" encoding="utf-8"?>
<!-- Generator: Adobe Illustrator 24.2.1, SVG Export Plug-In . SVG Version: 6.00 Build 0)  -->
<svg version="1.1" id="Layer_1" xmlns="http://www.w3.org/2000/svg" xmlns:xlink="http://www.w3.org/1999/xlink" x="0px" y="0px"
	 viewBox="0 0 143 58.8" style="enable-background:new 0 0 143 58.8;" xml:space="preserve">
<style type="text/css">
	.st0{fill:none;}
	.st1{fill:#414042;}
</style>
<rect x="-34.54" y="-73.34" class="st0" width="213.67" height="169.28"/>
<polygon class="st1" points="20.28,49.76 16.99,45.16 16.97,45.15 15.84,45.15 15.84,50.69 16.71,50.69 16.71,46.08 20,50.68 
	20.01,50.69 21.15,50.69 21.15,45.15 20.28,45.15 "/>
<polygon class="st1" points="25.96,48.19 29.04,48.19 29.04,47.49 25.96,47.49 25.96,45.84 29.25,45.84 29.25,45.15 25.09,45.15 
	25.09,50.69 29.35,50.69 29.35,50 25.96,50 "/>
<polygon class="st1" points="39.36,49.89 37.7,45.17 37.69,45.15 36.58,45.15 34.92,49.89 33.33,45.17 33.32,45.15 32.41,45.15 
	34.33,50.67 34.33,50.69 35.48,50.69 37.13,45.95 38.78,50.67 38.78,50.69 39.93,50.69 41.84,45.2 41.85,45.15 40.94,45.15 "/>
<polygon class="st1" points="52.69,47.67 50.74,45.16 50.74,45.15 49.62,45.15 52.26,48.39 52.26,50.69 53.13,50.69 53.13,48.39 
	55.72,45.21 55.77,45.15 54.65,45.15 "/>
<path class="st1" d="M61.46,45c-1.61,0.1-2.83,1.49-2.73,3.1c0.1,1.61,1.49,2.83,3.1,2.73c1.53-0.1,2.73-1.37,2.73-2.91
	c0.06-1.54-1.13-2.85-2.67-2.93L61.46,45z M61.46,50.13c-1.22,0.01-2.22-0.98-2.23-2.2c-0.01-1.22,0.98-2.22,2.2-2.23
	c1.22-0.01,2.22,0.98,2.23,2.2l0,0c0.08,1.15-0.79,2.14-1.93,2.23H61.46z"/>
<path class="st1" d="M72.93,49.35v-0.12c-0.13-0.84-0.31-1.19-0.93-1.33c0.65-0.11,1.12-0.68,1.11-1.33c0-0.77-0.25-1.48-2.11-1.48
	h-2.6v5.55h0.87v-2.49h1.48c0.99,0,1.25,0.25,1.33,0.64c0.08,0.39,0.11,0.52,0.15,0.79c0.05,0.33,0.13,0.66,0.23,0.99h0.92
	C73.18,50.16,73.03,49.76,72.93,49.35z M70.87,47.56h-1.76v-1.71h1.77c0.95,0,1.33,0.23,1.33,0.85S71.79,47.56,70.87,47.56z"/>
<polygon class="st1" points="82.09,45.15 80.81,45.15 77.93,47.55 77.93,45.15 77.06,45.15 77.06,50.69 77.93,50.69 77.93,47.8 
	81.06,50.68 81.06,50.69 82.33,50.69 78.93,47.65 "/>
<path class="st1" d="M103.37,45.39c-0.46,0.43-1.01,0.76-1.6,0.97l0,0v0.79l0,0c0.55-0.16,1.06-0.45,1.49-0.83v4.39h0.87v-5.33
	h-0.76L103.37,45.39z"/>
<path class="st1" d="M111.35,45.23c-1.33,0-2.27,0.73-2.27,1.83c0.06,1.03,0.94,1.82,1.97,1.79l0,0c0.7,0.08,1.39-0.2,1.84-0.73
	c-0.11,1.33-0.64,2.03-1.61,2.03s-1.27-0.32-1.33-0.89h-0.91c0.11,1.01,0.87,1.57,2.13,1.57c1.75,0,2.52-0.93,2.52-3
	C113.8,46.05,113.03,45.23,111.35,45.23z M111.35,48.15c-1.05,0-1.43-0.67-1.43-1.12c0-0.45,0.39-1.12,1.43-1.12
	s1.45,0.67,1.45,1.12c0,0.45-0.41,1.11-1.43,1.11L111.35,48.15z"/>
<path class="st1" d="M119.51,45.23c-1.6,0-2.44,0.97-2.44,2.8c0,1.83,0.84,2.8,2.44,2.8s2.44-0.97,2.44-2.8
	C121.95,46.2,121.11,45.23,119.51,45.23z M119.51,50.13c-1.33,0-1.59-1.15-1.59-2.11c0-0.96,0.28-2.11,1.59-2.11
	s1.59,1.15,1.59,2.11C121.1,48.99,120.82,50.13,119.51,50.13z"/>
<polygon class="st1" points="125.24,46.12 128.75,46.12 126.23,50.64 126.2,50.69 127.2,50.69 129.68,46.09 129.68,45.37 
	125.24,45.37 "/>
<path class="st1" d="M91.34,47.41c-0.42,0-0.76,0.34-0.76,0.76s0.34,0.76,0.76,0.76s0.76-0.34,0.76-0.76l0,0l0,0
	C92.1,47.75,91.76,47.41,91.34,47.41z"/>
<path class="st1" d="M62.58,8.84c0.59,0.29,0.97,0.87,1,1.52c0,0.19-0.04,0.38-0.12,0.56l-7.72,19.81h-0.16l-4.08-10.6l3.6-9.24
	c0.68-1.44,1.36-1.84,2-2V8.33h-4.64v0.56c0.58,0.29,0.97,0.87,1,1.52c0,0.19-0.04,0.38-0.12,0.56l-2.72,7l-2.68-7
	c-0.08-0.19-0.12-0.39-0.12-0.6c0.01-0.65,0.41-1.23,1-1.48V8.33h-5.53v0.56c0.68,0.2,1.36,0.6,2,2l4.08,10.24l-3.76,9.6h-0.16
	l-7.64-19.81c-0.08-0.19-0.12-0.39-0.12-0.6c0.01-0.65,0.41-1.23,1-1.48V8.28h-5.52v0.56c0.68,0.2,1.36,0.6,2,2l9.4,23.61h1.28
	l4.4-11.2l4.44,11.2H56l9.24-23.61c0.68-1.44,1.36-1.84,2-2V8.28h-4.66V8.84z"/>
<path class="st1" d="M114.55,8.28v3.6h0.56c0.22-1.12,1.14-1.96,2.28-2.08h6.68v21.8c0,0.62-0.26,1.22-0.72,1.64
	c-0.2,0.21-0.45,0.38-0.72,0.48v0.56H128v-0.56c-0.27-0.1-0.52-0.27-0.72-0.48c-0.46-0.42-0.72-1.02-0.72-1.64V9.8h6.72
	c1.14,0.12,2.06,0.96,2.28,2.08h0.56v-3.6H114.55z"/>
<path class="st1" d="M91.35,32.24c0-0.21,0.04-0.41,0.12-0.6l2.72-6.84h9.72l2.6,6.84c0.08,0.19,0.12,0.39,0.12,0.6
	c-0.01,0.65-0.41,1.23-1,1.48v0.56h5.92v-0.56c-0.98-0.3-1.77-1.04-2.12-2l-9.12-23.53h-1.48l-9.44,23.53
	c-0.35,0.96-1.14,1.7-2.12,2v0.56h5.08v-0.56C91.76,33.47,91.36,32.89,91.35,32.24z M99.15,12.15l4.2,11.12h-8.56L99.15,12.15z"/>
<path class="st1" d="M74.62,8.84c0.27,0.1,0.52,0.27,0.72,0.48c0.45,0.41,0.71,0.99,0.72,1.6V31.6c0,0.62-0.26,1.22-0.72,1.64
	c-0.2,0.21-0.45,0.38-0.72,0.48v0.56h5.32v-0.56c-0.27-0.1-0.52-0.27-0.72-0.48c-0.46-0.42-0.72-1.02-0.72-1.64V10.92
	c0.01-0.61,0.27-1.19,0.72-1.6c0.2-0.21,0.45-0.38,0.72-0.48V8.28h-5.32V8.84z"/>
<path class="st1" d="M24.37,29.84l-8.24-9.12l0.28-0.36l8-10c0.63-0.8,1.52-1.34,2.52-1.52V8.28h-5.17v0.56
	c0.44,0.06,0.77,0.44,0.76,0.88c-0.01,0.3-0.12,0.58-0.32,0.8l-8.64,10.84l9.24,10.8c1.92,2.24,3.44,2.12,5.6,2.12h0.8v-0.56
	c-0.94-0.16-1.8-0.62-2.44-1.32C26.25,31.88,24.37,29.84,24.37,29.84z"/>
<path class="st1" d="M12.4,31.6V10.92c0.01-0.61,0.27-1.19,0.72-1.6c0.2-0.21,0.45-0.38,0.72-0.48V8.28H8.52v0.56
	c0.27,0.1,0.52,0.27,0.72,0.48c0.45,0.41,0.71,0.99,0.72,1.6V31.6c0,0.62-0.26,1.22-0.72,1.64c-0.2,0.21-0.45,0.38-0.72,0.48v0.56
	h5.32v-0.56c-0.27-0.1-0.52-0.27-0.72-0.48C12.66,32.82,12.4,32.22,12.4,31.6z"/>
</svg>
